<?xml version="1.0" encoding="UTF-8"?>
<svg id="Layer_1" data-name="Layer 1" xmlns="http://www.w3.org/2000/svg" viewBox="0 0 595.28 97.03">
  <defs>
    <style>
      .cls-1, .cls-2, .cls-3 {
        fill: #f8f1e8;
      }

      .cls-2 {
        font-family: Lexend-Medium, Lexend;
      }

      .cls-2, .cls-3 {
        font-size: 12.73px;
        font-weight: 500;
      }

      .cls-3 {
        font-family: ReadexPro-Medium, 'Readex Pro';
      }

      .cls-4 {
        fill: #2f2c27;
      }
    </style>
  </defs>
  <rect class="cls-4" y="50.25" width="595.28" height="46.78"/>
  <rect class="cls-4" x="481.38" width="79.72" height="79.72" rx="9.64" ry="9.64"/>
  <g>
    <g>
      <text class="cls-2" transform="translate(117.49 76.41)"><tspan x="0" y="0">+</tspan><tspan x="7.55" y="0">90</tspan><tspan x="22.72" y="0"> </tspan><tspan x="26.46" y="0">552</tspan><tspan x="48.16" y="0"> </tspan><tspan x="51.91" y="0">800</tspan><tspan x="75.44" y="0"> </tspan><tspan x="79.18" y="0">60</tspan><tspan x="94.41" y="0"> </tspan><tspan x="98.16" y="0">00</tspan></text>
      <g>
        <path class="cls-1" d="M101.5,76.73c-.13-.13-.35-.13-.48,0l-.77.77c-1.29-.78-2.32-1.47-3.54-2.68-1.21-1.2-1.9-2.22-2.68-3.54l.77-.77c.13-.13.13-.35,0-.48l-4.07-4.07c-.13-.13-.35-.13-.48,0l-1.24,1.24c-.5.5-.73,1.22-.62,1.92.21,1.28.65,2.43,1.45,3.53,1.04,1.43,2.21,2.78,3.46,4.04,1.67,1.67,3.08,3.17,5.56,4.99,1,.73,2.17,1.22,3.39,1.43.18.03.3.05.5.05.58,0,1.14-.23,1.56-.64l1.24-1.24c.13-.13.13-.35,0-.48l-4.07-4.07Z"/>
        <path class="cls-1" d="M107.01,77.87l-2.63-2.63c-.53-.53-1.38-.53-1.91,0l-.72.72c-.13.13-.13.34,0,.48l4.07,4.07c.13.13.34.13.48,0,.77-.77.72-.71.72-.72.53-.53.53-1.39,0-1.91"/>
        <path class="cls-1" d="M95.15,69.78c.13.13.35.13.48,0,.77-.77.71-.71.72-.72.53-.53.53-1.38,0-1.91l-2.63-2.63c-.53-.53-1.39-.53-1.91,0l-.72.72c-.13.13-.13.35,0,.48l4.07,4.07Z"/>
      </g>
    </g>
    <g>
      <text class="cls-3" transform="translate(283.46 76.19)"><tspan x="0" y="0">info@bmturkiye.com.tr</tspan></text>
      <g>
        <path class="cls-1" d="M263.87,75.44c-.66,0-1.3-.19-1.86-.55l-7.28-4.71v6.39c0,.62.5,1.13,1.14,1.13h16c.63,0,1.14-.51,1.14-1.13v-6.39l-7.28,4.71c-.56.36-1.2.55-1.86.55"/>
        <path class="cls-1" d="M271.87,66.42h-16c-.63,0-1.14.51-1.14,1.14v1.55l7.77,5.02c.83.54,1.89.54,2.72,0l7.77-5.02v-1.55c0-.63-.51-1.14-1.14-1.14"/>
      </g>
    </g>
  </g>
  <path class="cls-1" d="M544.15,8.38c-3.09,0-5.59,2.5-5.59,5.59h0v4.47c0,3.09,2.5,5.59,5.59,5.59h4.47c3.09,0,5.59-2.5,5.59-5.59h0v-4.47c0-3.09-2.5-5.59-5.59-5.59h-4.47ZM540.79,18.44v-4.47c0-1.85,1.5-3.35,3.35-3.35h4.47c1.85,0,3.35,1.5,3.35,3.35h0v4.47c0,1.85-1.5,3.35-3.35,3.35h-4.47c-1.85,0-3.35-1.5-3.35-3.35ZM534.09,8.38v2.24h1.12c.62,0,1.12-.5,1.12-1.12h0c0-.62-.5-1.12-1.12-1.12h-1.12ZM531.85,8.38v2.24h2.24v-2.24h-2.24ZM529.61,8.38v7.83c0,.62.5,1.12,1.12,1.12h1.12v-8.95h-2.24ZM528.49,8.38c-.62,0-1.12.5-1.12,1.12h0c0,.62.5,1.12,1.12,1.12h1.12v-2.24h-1.12ZM522.9,9.5c0,.62.5,1.12,1.12,1.12h0c.62,0,1.12-.5,1.12-1.12h0c0-.62-.5-1.12-1.12-1.12h0c-.62,0-1.12.5-1.12,1.12ZM518.43,9.5v2.24c0,.62.5,1.12,1.12,1.12h0c.62,0,1.12-.5,1.12-1.12h0v-2.24c0-.62-.5-1.12-1.12-1.12h0c-.62,0-1.12.5-1.12,1.12ZM513.96,8.38v2.24h1.12c.62,0,1.12-.5,1.12-1.12h0c0-.62-.5-1.12-1.12-1.12h-1.12ZM512.84,8.38c-.62,0-1.12.5-1.12,1.12h0c0,.62.5,1.12,1.12,1.12h1.12v-2.24h-1.12ZM494.95,8.38c-3.09,0-5.59,2.5-5.59,5.59h0v4.47c0,3.09,2.5,5.59,5.59,5.59h4.47c3.09,0,5.59-2.5,5.59-5.59h0v-4.47c0-3.09-2.5-5.59-5.59-5.59h-4.47ZM491.59,18.44v-4.47c0-1.85,1.5-3.35,3.35-3.35h4.47c1.85,0,3.35,1.5,3.35,3.35h0v4.47c0,1.85-1.5,3.35-3.35,3.35h-4.47c-1.85,0-3.35-1.5-3.35-3.35ZM509.49,10.61v2.24h1.12c.62,0,1.12-.5,1.12-1.12h0c0-.62-.5-1.12-1.12-1.12h-1.12ZM508.37,10.61c-.62,0-1.12.5-1.12,1.12h0c0,.62.5,1.12,1.12,1.12h1.12v-2.24h-1.12ZM543.03,16.21c0,1.85,1.5,3.35,3.35,3.35h0c1.85,0,3.35-1.5,3.35-3.35h0c0-1.85-1.5-3.35-3.35-3.35h0c-1.85,0-3.35,1.5-3.35,3.35ZM534.09,13.97c0,.62.5,1.12,1.12,1.12h0c.62,0,1.12-.5,1.12-1.12h0c0-.62-.5-1.12-1.12-1.12h0c-.62,0-1.12.5-1.12,1.12ZM525.14,12.85v2.24h1.12c.62,0,1.12-.5,1.12-1.12h0c0-.62-.5-1.12-1.12-1.12h-1.12ZM524.02,12.85c-.62,0-1.12.5-1.12,1.12h0c0,.62.5,1.12,1.12,1.12h1.12v-2.24h-1.12ZM516.19,12.85v2.24h1.12c.62,0,1.12-.5,1.12-1.12h0c0-.62-.5-1.12-1.12-1.12h-1.12ZM513.96,12.85v4.47h1.12c.62,0,1.12-.5,1.12-1.12h0v-3.35h-2.24ZM512.84,12.85c-.62,0-1.12.5-1.12,1.12h0v4.47c0,.62.5,1.12,1.12,1.12h0c.62,0,1.12-.5,1.12-1.12h0v-5.59h-1.12ZM493.83,16.21c0,1.85,1.5,3.35,3.35,3.35h0c1.85,0,3.35-1.5,3.35-3.35h0c0-1.85-1.5-3.35-3.35-3.35h0c-1.85,0-3.35,1.5-3.35,3.35ZM531.85,15.09v6.71h2.24v-5.59c0-.62-.5-1.12-1.12-1.12h-1.12ZM534.09,17.32v8.95h1.12c.62,0,1.12-.5,1.12-1.12h0v-6.71c0-.62-.5-1.12-1.12-1.12h-1.12ZM527.38,17.32v2.24h1.12c.62,0,1.12-.5,1.12-1.12h0c0-.62-.5-1.12-1.12-1.12h-1.12ZM526.26,17.32c-.62,0-1.12.5-1.12,1.12h0c0,.62.5,1.12,1.12,1.12h1.12v-2.24h-1.12ZM518.43,17.32v4.47h1.12c.62,0,1.12-.5,1.12-1.12h0v-2.24c0-.62-.5-1.12-1.12-1.12h-1.12ZM517.31,17.32c-.62,0-1.12.5-1.12,1.12h0v10.06h1.12c.62,0,1.12-.5,1.12-1.12h0v-10.06h-1.12ZM530.73,19.56c-.62,0-1.12.5-1.12,1.12h0v2.24c0,.62.5,1.12,1.12,1.12h0c.62,0,1.12-.5,1.12-1.12h0v-3.35h-1.12ZM515.08,19.56c-.62,0-1.12.5-1.12,1.12h0c0,.62.5,1.12,1.12,1.12h1.12v-2.24h-1.12ZM525.14,22.91c0,.62.5,1.12,1.12,1.12h0c.62,0,1.12-.5,1.12-1.12h0c0-.62-.5-1.12-1.12-1.12h0c-.62,0-1.12.5-1.12,1.12ZM520.67,22.91v4.47c0,.62.5,1.12,1.12,1.12h1.12v-5.59c0-.62-.5-1.12-1.12-1.12h0c-.62,0-1.12.5-1.12,1.12ZM511.72,22.91c0,.62.5,1.12,1.12,1.12h0c.62,0,1.12-.5,1.12-1.12h0c0-.62-.5-1.12-1.12-1.12h0c-.62,0-1.12.5-1.12,1.12ZM507.25,22.91v4.47c0,.62.5,1.12,1.12,1.12h1.12v-5.59c0-.62-.5-1.12-1.12-1.12h0c-.62,0-1.12.5-1.12,1.12ZM532.97,24.03c-.62,0-1.12.5-1.12,1.12h0v12.3h2.24v-13.42h-1.12ZM515.08,24.03c-.62,0-1.12.5-1.12,1.12h0v2.24c0,.62.5,1.12,1.12,1.12h1.12v-4.47h-1.12ZM549.74,27.39c0,.62.5,1.12,1.12,1.12h0c.62,0,1.12-.5,1.12-1.12h0c0-.62-.5-1.12-1.12-1.12h0c-.62,0-1.12.5-1.12,1.12ZM538.56,26.27v6.71h1.12c.62,0,1.12-.5,1.12-1.12h0v-4.47c0-.62-.5-1.12-1.12-1.12h-1.12ZM537.44,26.27c-.62,0-1.12.5-1.12,1.12h0v6.71c0,.62.5,1.12,1.12,1.12h0c.62,0,1.12-.5,1.12-1.12h0v-7.83h-1.12ZM527.38,27.39v3.35h2.24v-3.35c0-.62-.5-1.12-1.12-1.12h0c-.62,0-1.12.5-1.12,1.12ZM522.9,26.27v2.24h1.12c.62,0,1.12-.5,1.12-1.12h0c0-.62-.5-1.12-1.12-1.12h-1.12ZM509.49,26.27v3.35c0,.62.5,1.12,1.12,1.12h1.12v-3.35c0-.62-.5-1.12-1.12-1.12h-1.12ZM502.78,27.39c0,.62.5,1.12,1.12,1.12h0c.62,0,1.12-.5,1.12-1.12h0c0-.62-.5-1.12-1.12-1.12h0c-.62,0-1.12.5-1.12,1.12ZM491.59,26.27v2.24h1.12c.62,0,1.12-.5,1.12-1.12h0c0-.62-.5-1.12-1.12-1.12h-1.12ZM490.48,26.27c-.62,0-1.12.5-1.12,1.12h0v4.47c0,.62.5,1.12,1.12,1.12h0c.62,0,1.12-.5,1.12-1.12h0v-5.59h-1.12ZM543.03,29.62c0,.62.5,1.12,1.12,1.12h0c.62,0,1.12-.5,1.12-1.12h0c0-.62-.5-1.12-1.12-1.12h0c-.62,0-1.12.5-1.12,1.12ZM534.09,28.51v2.24h2.24v-2.24h-2.24ZM529.61,28.51v3.35c0,.62.5,1.12,1.12,1.12h1.12v-4.47h-2.24ZM526.26,28.51c-.62,0-1.12.5-1.12,1.12h0v10.06h1.12c.62,0,1.12-.5,1.12-1.12h0v-10.06h-1.12ZM511.72,28.51v3.35c0,.62.5,1.12,1.12,1.12h1.12v-3.35c0-.62-.5-1.12-1.12-1.12h-1.12ZM505.01,29.62c0,.62.5,1.12,1.12,1.12h0c.62,0,1.12-.5,1.12-1.12h0c0-.62-.5-1.12-1.12-1.12h0c-.62,0-1.12.5-1.12,1.12ZM500.54,28.51v8.95h2.24v-7.83c0-.62-.5-1.12-1.12-1.12h-1.12ZM498.3,28.51v2.24h2.24v-2.24h-2.24ZM496.07,28.51v3.35c0,.62.5,1.12,1.12,1.12h0c.62,0,1.12-.5,1.12-1.12h0v-3.35h-2.24ZM494.95,28.51c-.62,0-1.12.5-1.12,1.12h0c0,.62.5,1.12,1.12,1.12h1.12v-2.24h-1.12ZM551.98,30.74v4.47h1.12c.62,0,1.12-.5,1.12-1.12h0v-2.24c0-.62-.5-1.12-1.12-1.12h-1.12ZM549.74,30.74v7.83c0,.62.5,1.12,1.12,1.12h0c.62,0,1.12-.5,1.12-1.12h0v-7.83h-2.24ZM547.5,30.74v2.24h2.24v-2.24h-2.24ZM546.39,30.74c-.62,0-1.12.5-1.12,1.12h0c0,.62.5,1.12,1.12,1.12h1.12v-2.24h-1.12ZM520.67,30.74v2.24h1.12c.62,0,1.12-.5,1.12-1.12h0c0-.62-.5-1.12-1.12-1.12h-1.12ZM519.55,30.74c-.62,0-1.12.5-1.12,1.12h0c0,.62.5,1.12,1.12,1.12h1.12v-2.24h-1.12ZM513.96,30.74v2.24h1.12c.62,0,1.12-.5,1.12-1.12h0c0-.62-.5-1.12-1.12-1.12h-1.12ZM502.78,30.74v2.24h1.12c.62,0,1.12-.5,1.12-1.12h0c0-.62-.5-1.12-1.12-1.12h-1.12ZM527.38,32.98v2.24h1.12c.62,0,1.12-.5,1.12-1.12h0c0-.62-.5-1.12-1.12-1.12h-1.12ZM524.02,32.98c-.62,0-1.12.5-1.12,1.12h0c0,.62.5,1.12,1.12,1.12h1.12v-2.24h-1.12ZM509.49,32.98v2.24h1.12c.62,0,1.12-.5,1.12-1.12h0c0-.62-.5-1.12-1.12-1.12h-1.12ZM507.25,32.98v2.24h2.24v-2.24h-2.24ZM506.13,32.98c-.62,0-1.12.5-1.12,1.12h0c0,.62.5,1.12,1.12,1.12h1.12v-2.24h-1.12ZM493.83,34.1v2.24c0,.62.5,1.12,1.12,1.12h0c.62,0,1.12-.5,1.12-1.12h0v-2.24c0-.62-.5-1.12-1.12-1.12h0c-.62,0-1.12.5-1.12,1.12ZM543.03,35.21v2.24h1.12c.62,0,1.12-.5,1.12-1.12h0c0-.62-.5-1.12-1.12-1.12h-1.12ZM540.79,35.21v4.47h1.12c.62,0,1.12-.5,1.12-1.12h0v-3.35h-2.24ZM539.68,35.21c-.62,0-1.12.5-1.12,1.12h0v12.3h2.24v-13.42h-1.12ZM534.09,35.21v2.24h1.12c.62,0,1.12-.5,1.12-1.12h0c0-.62-.5-1.12-1.12-1.12h-1.12ZM530.73,35.21c-.62,0-1.12.5-1.12,1.12h0c0,.62.5,1.12,1.12,1.12h1.12v-2.24h-1.12ZM518.43,36.33v3.35h2.24v-3.35c0-.62-.5-1.12-1.12-1.12h0c-.62,0-1.12.5-1.12,1.12ZM513.96,35.21v3.35c0,.62.5,1.12,1.12,1.12h1.12v-3.35c0-.62-.5-1.12-1.12-1.12h-1.12ZM512.84,35.21c-.62,0-1.12.5-1.12,1.12h0c0,.62.5,1.12,1.12,1.12h1.12v-2.24h-1.12ZM502.78,35.21v2.24h1.12c.62,0,1.12-.5,1.12-1.12h0c0-.62-.5-1.12-1.12-1.12h-1.12ZM499.42,35.21c-.62,0-1.12.5-1.12,1.12h0c0,.62.5,1.12,1.12,1.12h1.12v-2.24h-1.12ZM489.36,36.33c0,.62.5,1.12,1.12,1.12h0c.62,0,1.12-.5,1.12-1.12h0c0-.62-.5-1.12-1.12-1.12h0c-.62,0-1.12.5-1.12,1.12ZM545.27,38.57v2.24c0,.62.5,1.12,1.12,1.12h1.12v-3.35c0-.62-.5-1.12-1.12-1.12h0c-.62,0-1.12.5-1.12,1.12ZM537.44,37.45c-.62,0-1.12.5-1.12,1.12h0c0,.62.5,1.12,1.12,1.12h1.12v-2.24h-1.12ZM522.9,37.45v2.24h2.24v-2.24h-2.24ZM520.67,37.45v3.35c0,.62.5,1.12,1.12,1.12h0c.62,0,1.12-.5,1.12-1.12h0v-3.35h-2.24ZM516.19,37.45v2.24h2.24v-2.24h-2.24ZM509.49,37.45v8.95h2.24v-7.83c0-.62-.5-1.12-1.12-1.12h-1.12ZM508.37,37.45c-.62,0-1.12.5-1.12,1.12h0c0,.62.5,1.12,1.12,1.12h1.12v-2.24h-1.12ZM491.59,38.57c0,.62.5,1.12,1.12,1.12h0c.62,0,1.12-.5,1.12-1.12h0c0-.62-.5-1.12-1.12-1.12h0c-.62,0-1.12.5-1.12,1.12ZM551.98,40.81v2.24c0,.62.5,1.12,1.12,1.12h0c.62,0,1.12-.5,1.12-1.12h0v-2.24c0-.62-.5-1.12-1.12-1.12h0c-.62,0-1.12.5-1.12,1.12ZM547.5,39.69v31.31h1.12c.62,0,1.12-.5,1.12-1.12h0v-29.07c0-.62-.5-1.12-1.12-1.12h-1.12ZM534.09,40.81c0,.62.5,1.12,1.12,1.12h0c.62,0,1.12-.5,1.12-1.12h0c0-.62-.5-1.12-1.12-1.12h0c-.62,0-1.12.5-1.12,1.12ZM529.61,39.69v2.24h1.12c.62,0,1.12-.5,1.12-1.12h0c0-.62-.5-1.12-1.12-1.12h-1.12ZM528.49,39.69c-.62,0-1.12.5-1.12,1.12h0c0,.62.5,1.12,1.12,1.12h1.12v-2.24h-1.12ZM502.78,40.81c0,.62.5,1.12,1.12,1.12h0c.62,0,1.12-.5,1.12-1.12h0c0-.62-.5-1.12-1.12-1.12h0c-.62,0-1.12.5-1.12,1.12ZM498.3,39.69v8.95h2.24v-7.83c0-.62-.5-1.12-1.12-1.12h-1.12ZM497.19,39.69c-.62,0-1.12.5-1.12,1.12h0v6.71c0,.62.5,1.12,1.12,1.12h1.12v-8.95h-1.12ZM537.44,41.92c-.62,0-1.12.5-1.12,1.12h0c0,.62.5,1.12,1.12,1.12h1.12v-2.24h-1.12ZM531.85,43.04v3.35h2.24v-3.35c0-.62-.5-1.12-1.12-1.12h0c-.62,0-1.12.5-1.12,1.12ZM513.96,41.92v4.47h2.24v-3.35c0-.62-.5-1.12-1.12-1.12h-1.12ZM511.72,41.92v4.47h2.24v-4.47h-2.24ZM500.54,41.92v6.71h1.12c.62,0,1.12-.5,1.12-1.12h0v-4.47c0-.62-.5-1.12-1.12-1.12h-1.12ZM493.83,41.92v4.47h2.24v-4.47h-2.24ZM491.59,41.92v3.35c0,.62.5,1.12,1.12,1.12h1.12v-4.47h-2.24ZM490.48,41.92c-.62,0-1.12.5-1.12,1.12h0c0,.62.5,1.12,1.12,1.12h1.12v-2.24h-1.12ZM549.74,44.16v2.24h1.12c.62,0,1.12-.5,1.12-1.12h0c0-.62-.5-1.12-1.12-1.12h-1.12ZM534.09,44.16v3.35c0,.62.5,1.12,1.12,1.12h1.12v-3.35c0-.62-.5-1.12-1.12-1.12h-1.12ZM529.61,44.16v2.24h2.24v-2.24h-2.24ZM528.49,44.16c-.62,0-1.12.5-1.12,1.12h0c0,.62.5,1.12,1.12,1.12h1.12v-2.24h-1.12ZM520.67,45.28c0,.62.5,1.12,1.12,1.12h0c.62,0,1.12-.5,1.12-1.12h0c0-.62-.5-1.12-1.12-1.12h0c-.62,0-1.12.5-1.12,1.12ZM516.19,44.16v2.24h1.12c.62,0,1.12-.5,1.12-1.12h0c0-.62-.5-1.12-1.12-1.12h-1.12ZM508.37,44.16c-.62,0-1.12.5-1.12,1.12h0c0,.62.5,1.12,1.12,1.12h1.12v-2.24h-1.12ZM502.78,44.16v2.24h1.12c.62,0,1.12-.5,1.12-1.12h0c0-.62-.5-1.12-1.12-1.12h-1.12ZM551.98,47.51c0,.62.5,1.12,1.12,1.12h0c.62,0,1.12-.5,1.12-1.12h0c0-.62-.5-1.12-1.12-1.12h0c-.62,0-1.12.5-1.12,1.12ZM545.27,46.4v8.95h2.24v-8.95h-2.24ZM543.03,46.4v2.24h2.24v-2.24h-2.24ZM540.79,46.4v8.95h2.24v-8.95h-2.24ZM536.32,46.4v3.35c0,.62.5,1.12,1.12,1.12h0c.62,0,1.12-.5,1.12-1.12h0v-3.35h-2.24ZM505.01,47.51v3.35h1.12c.62,0,1.12-.5,1.12-1.12h0v-2.24c0-.62-.5-1.12-1.12-1.12h0c-.62,0-1.12.5-1.12,1.12ZM489.36,47.51c0,.62.5,1.12,1.12,1.12h0c.62,0,1.12-.5,1.12-1.12h0c0-.62-.5-1.12-1.12-1.12h0c-.62,0-1.12.5-1.12,1.12ZM531.85,48.63v12.3c0,.62.5,1.12,1.12,1.12h1.12v-12.3c0-.62-.5-1.12-1.12-1.12h-1.12ZM530.73,48.63c-.62,0-1.12.5-1.12,1.12h0v2.24c0,.62.5,1.12,1.12,1.12h1.12v-4.47h-1.12ZM525.14,49.75c0,.62.5,1.12,1.12,1.12h0c.62,0,1.12-.5,1.12-1.12h0c0-.62-.5-1.12-1.12-1.12h0c-.62,0-1.12.5-1.12,1.12ZM520.67,49.75c0,.62.5,1.12,1.12,1.12h0c.62,0,1.12-.5,1.12-1.12h0c0-.62-.5-1.12-1.12-1.12h0c-.62,0-1.12.5-1.12,1.12ZM509.49,49.75c0,.62.5,1.12,1.12,1.12h0c.62,0,1.12-.5,1.12-1.12h0c0-.62-.5-1.12-1.12-1.12h0c-.62,0-1.12.5-1.12,1.12ZM503.89,48.63c-.62,0-1.12.5-1.12,1.12h0c0,.62.5,1.12,1.12,1.12h1.12v-2.24h-1.12ZM493.83,49.75c0,.62.5,1.12,1.12,1.12h0c.62,0,1.12-.5,1.12-1.12h0c0-.62-.5-1.12-1.12-1.12h0c-.62,0-1.12.5-1.12,1.12ZM543.03,50.87v13.42h1.12c.62,0,1.12-.5,1.12-1.12h0v-12.3h-2.24ZM539.68,50.87c-.62,0-1.12.5-1.12,1.12h0v3.35h2.24v-4.47h-1.12ZM534.09,50.87v12.3c0,.62.5,1.12,1.12,1.12h1.12v-12.3c0-.62-.5-1.12-1.12-1.12h-1.12ZM522.9,51.99v2.24c0,.62.5,1.12,1.12,1.12h0c.62,0,1.12-.5,1.12-1.12h0v-2.24c0-.62-.5-1.12-1.12-1.12h0c-.62,0-1.12.5-1.12,1.12ZM518.43,51.99v3.35h1.12c.62,0,1.12-.5,1.12-1.12h0v-2.24c0-.62-.5-1.12-1.12-1.12h0c-.62,0-1.12.5-1.12,1.12ZM513.96,50.87v3.35c0,.62.5,1.12,1.12,1.12h1.12v-3.35c0-.62-.5-1.12-1.12-1.12h-1.12ZM512.84,50.87c-.62,0-1.12.5-1.12,1.12h0c0,.62.5,1.12,1.12,1.12h1.12v-2.24h-1.12ZM507.25,51.99c0,.62.5,1.12,1.12,1.12h0c.62,0,1.12-.5,1.12-1.12h0c0-.62-.5-1.12-1.12-1.12h0c-.62,0-1.12.5-1.12,1.12ZM498.3,51.99v2.24c0,.62.5,1.12,1.12,1.12h1.12v-3.35c0-.62-.5-1.12-1.12-1.12h0c-.62,0-1.12.5-1.12,1.12ZM489.36,51.99v2.24c0,.62.5,1.12,1.12,1.12h1.12v-3.35c0-.62-.5-1.12-1.12-1.12h0c-.62,0-1.12.5-1.12,1.12ZM536.32,53.11v2.24h2.24v-2.24h-2.24ZM516.19,53.11v6.71h2.24v-6.71h-2.24ZM505.01,53.11v2.24h1.12c.62,0,1.12-.5,1.12-1.12h0c0-.62-.5-1.12-1.12-1.12h-1.12ZM502.78,53.11v2.24h2.24v-2.24h-2.24ZM500.54,53.11v2.24h2.24v-2.24h-2.24ZM491.59,53.11v2.24h1.12c.62,0,1.12-.5,1.12-1.12h0c0-.62-.5-1.12-1.12-1.12h-1.12ZM551.98,56.46v3.35h1.12c.62,0,1.12-.5,1.12-1.12h0v-2.24c0-.62-.5-1.12-1.12-1.12h0c-.62,0-1.12.5-1.12,1.12ZM527.38,56.46v2.24c0,.62.5,1.12,1.12,1.12h0c.62,0,1.12-.5,1.12-1.12h0v-2.24c0-.62-.5-1.12-1.12-1.12h0c-.62,0-1.12.5-1.12,1.12ZM511.72,55.34v3.35c0,.62.5,1.12,1.12,1.12h1.12v-3.35c0-.62-.5-1.12-1.12-1.12h-1.12ZM509.49,55.34v2.24h2.24v-2.24h-2.24ZM508.37,55.34c-.62,0-1.12.5-1.12,1.12h0c0,.62.5,1.12,1.12,1.12h1.12v-2.24h-1.12ZM549.74,57.58v2.24h2.24v-2.24h-2.24ZM538.56,58.7c0,.62.5,1.12,1.12,1.12h0c.62,0,1.12-.5,1.12-1.12h0c0-.62-.5-1.12-1.12-1.12h0c-.62,0-1.12.5-1.12,1.12ZM522.9,58.7c0,.62.5,1.12,1.12,1.12h0c.62,0,1.12-.5,1.12-1.12h0c0-.62-.5-1.12-1.12-1.12h0c-.62,0-1.12.5-1.12,1.12ZM518.43,57.58v2.24h1.12c.62,0,1.12-.5,1.12-1.12h0c0-.62-.5-1.12-1.12-1.12h-1.12ZM513.96,57.58v3.35c0,.62.5,1.12,1.12,1.12h0c.62,0,1.12-.5,1.12-1.12h0v-3.35h-2.24ZM494.95,57.58c-3.09,0-5.59,2.5-5.59,5.59h0v4.47c0,3.09,2.5,5.59,5.59,5.59h4.47c3.09,0,5.59-2.5,5.59-5.59h0v-4.47c0-3.09-2.5-5.59-5.59-5.59h-4.47ZM491.59,67.64v-4.47c0-1.85,1.5-3.35,3.35-3.35h4.47c1.85,0,3.35,1.5,3.35,3.35h0v4.47c0,1.85-1.5,3.35-3.35,3.35h-4.47c-1.85,0-3.35-1.5-3.35-3.35ZM545.27,59.81v2.24h2.24v-2.24h-2.24ZM520.67,60.93c0,.62.5,1.12,1.12,1.12h0c.62,0,1.12-.5,1.12-1.12h0c0-.62-.5-1.12-1.12-1.12h0c-.62,0-1.12.5-1.12,1.12ZM509.49,60.93v4.47c0,.62.5,1.12,1.12,1.12h0c.62,0,1.12-.5,1.12-1.12h0v-4.47c0-.62-.5-1.12-1.12-1.12h0c-.62,0-1.12.5-1.12,1.12ZM551.98,62.05v2.24h1.12c.62,0,1.12-.5,1.12-1.12h0c0-.62-.5-1.12-1.12-1.12h-1.12ZM549.74,62.05v6.71h2.24v-6.71h-2.24ZM540.79,62.05v3.35c0,.62.5,1.12,1.12,1.12h0c.62,0,1.12-.5,1.12-1.12h0v-3.35h-2.24ZM538.56,62.05v2.24h2.24v-2.24h-2.24ZM536.32,62.05v6.71h1.12c.62,0,1.12-.5,1.12-1.12h0v-5.59h-2.24ZM529.61,62.05v2.24h1.12c.62,0,1.12-.5,1.12-1.12h0c0-.62-.5-1.12-1.12-1.12h-1.12ZM528.49,62.05c-.62,0-1.12.5-1.12,1.12h0c0,.62.5,1.12,1.12,1.12h1.12v-2.24h-1.12ZM522.9,63.17v8.95c0,.62.5,1.12,1.12,1.12h0c.62,0,1.12-.5,1.12-1.12h0v-8.95c0-.62-.5-1.12-1.12-1.12h0c-.62,0-1.12.5-1.12,1.12ZM518.43,63.17v3.35h1.12c.62,0,1.12-.5,1.12-1.12h0v-2.24c0-.62-.5-1.12-1.12-1.12h0c-.62,0-1.12.5-1.12,1.12ZM493.83,65.4c0,1.85,1.5,3.35,3.35,3.35h0c1.85,0,3.35-1.5,3.35-3.35h0c0-1.85-1.5-3.35-3.35-3.35h0c-1.85,0-3.35,1.5-3.35,3.35ZM546.39,64.29c-.62,0-1.12.5-1.12,1.12h0v5.59h2.24v-6.71h-1.12ZM531.85,65.4c0,.62.5,1.12,1.12,1.12h0c.62,0,1.12-.5,1.12-1.12h0c0-.62-.5-1.12-1.12-1.12h0c-.62,0-1.12.5-1.12,1.12ZM525.14,64.29v4.47h1.12c.62,0,1.12-.5,1.12-1.12h0v-2.24c0-.62-.5-1.12-1.12-1.12h-1.12ZM516.19,64.29v2.24h2.24v-2.24h-2.24ZM515.08,64.29c-.62,0-1.12.5-1.12,1.12h0c0,.62.5,1.12,1.12,1.12h1.12v-2.24h-1.12ZM551.98,66.52v2.24h1.12c.62,0,1.12-.5,1.12-1.12h0c0-.62-.5-1.12-1.12-1.12h-1.12ZM535.2,66.52c-.62,0-1.12.5-1.12,1.12h0v4.47c0,.62.5,1.12,1.12,1.12h0c.62,0,1.12-.5,1.12-1.12h0v-5.59h-1.12ZM511.72,67.64c0,.62.5,1.12,1.12,1.12h0c.62,0,1.12-.5,1.12-1.12h0c0-.62-.5-1.12-1.12-1.12h0c-.62,0-1.12.5-1.12,1.12ZM543.03,68.76v2.24h2.24v-2.24h-2.24ZM541.91,68.76c-.62,0-1.12.5-1.12,1.12h0c0,.62.5,1.12,1.12,1.12h1.12v-2.24h-1.12ZM532.97,68.76c-.62,0-1.12.5-1.12,1.12h0c0,.62.5,1.12,1.12,1.12h1.12v-2.24h-1.12ZM521.79,68.76c-.62,0-1.12.5-1.12,1.12h0c0,.62.5,1.12,1.12,1.12h1.12v-2.24h-1.12ZM516.19,69.88c0,.62.5,1.12,1.12,1.12h0c.62,0,1.12-.5,1.12-1.12h0c0-.62-.5-1.12-1.12-1.12h0c-.62,0-1.12.5-1.12,1.12ZM509.49,68.76v2.24h1.12c.62,0,1.12-.5,1.12-1.12h0c0-.62-.5-1.12-1.12-1.12h-1.12ZM508.37,68.76c-.62,0-1.12.5-1.12,1.12h0v2.24c0,.62.5,1.12,1.12,1.12h0c.62,0,1.12-.5,1.12-1.12h0v-3.35h-1.12ZM549.74,72.11c0,.62.5,1.12,1.12,1.12h0c.62,0,1.12-.5,1.12-1.12h0c0-.62-.5-1.12-1.12-1.12h0c-.62,0-1.12.5-1.12,1.12ZM529.61,71v2.24h1.12c.62,0,1.12-.5,1.12-1.12h0c0-.62-.5-1.12-1.12-1.12h-1.12ZM528.49,71c-.62,0-1.12.5-1.12,1.12h0c0,.62.5,1.12,1.12,1.12h1.12v-2.24h-1.12ZM518.43,72.11c0,.62.5,1.12,1.12,1.12h0c.62,0,1.12-.5,1.12-1.12h0c0-.62-.5-1.12-1.12-1.12h0c-.62,0-1.12.5-1.12,1.12Z"/>
</svg>