<?xml version="1.0" encoding="UTF-8"?>
<svg id="Layer_1" data-name="Layer 1" xmlns="http://www.w3.org/2000/svg" viewBox="0 0 595.28 125.22">
  <defs>
    <style>
      .cls-1, .cls-2, .cls-3 {
        fill: #f8f1e8;
      }

      .cls-2 {
        font-family: Lexend-Medium, Lexend;
      }

      .cls-2, .cls-3 {
        font-size: 12.73px;
        font-weight: 500;
      }

      .cls-3 {
        font-family: ReadexPro-Medium, 'Readex Pro';
      }

      .cls-4 {
        fill: #2f2c27;
      }
    </style>
  </defs>
  <rect class="cls-4" x="0" y="77.99" width="595.28" height="46.78"/>
  <rect class="cls-4" x="481.38" y="27.74" width="79.72" height="79.72" rx="9.64" ry="9.64"/>
  <g>
    <g>
      <text class="cls-2" transform="translate(117.49 104.15)"><tspan x="0" y="0">+</tspan><tspan x="7.55" y="0">90</tspan><tspan x="22.72" y="0"> </tspan><tspan x="26.46" y="0">552</tspan><tspan x="48.16" y="0"> </tspan><tspan x="51.91" y="0">800</tspan><tspan x="75.44" y="0"> </tspan><tspan x="79.18" y="0">60</tspan><tspan x="94.41" y="0"> </tspan><tspan x="98.16" y="0">00</tspan></text>
      <g>
        <path class="cls-1" d="M101.5,104.47c-.13-.13-.35-.13-.48,0l-.77.77c-1.29-.78-2.32-1.47-3.54-2.68-1.21-1.2-1.9-2.22-2.68-3.54l.77-.77c.13-.13.13-.35,0-.48l-4.07-4.07c-.13-.13-.35-.13-.48,0l-1.24,1.24c-.5.5-.73,1.22-.62,1.92.21,1.28.65,2.43,1.45,3.53,1.04,1.43,2.21,2.78,3.46,4.04,1.67,1.67,3.08,3.17,5.56,4.99,1,.73,2.17,1.22,3.39,1.43.18.03.3.05.5.05.58,0,1.14-.23,1.56-.64l1.24-1.24c.13-.13.13-.35,0-.48l-4.07-4.07Z"/>
        <path class="cls-1" d="M107.01,105.61l-2.63-2.63c-.53-.53-1.38-.53-1.91,0l-.72.72c-.13.13-.13.34,0,.48l4.07,4.07c.13.13.34.13.48,0,.77-.77.72-.71.72-.72.53-.53.53-1.39,0-1.91"/>
        <path class="cls-1" d="M95.15,97.52c.13.13.35.13.48,0,.77-.77.71-.71.72-.72.53-.53.53-1.38,0-1.91l-2.63-2.63c-.53-.53-1.39-.53-1.91,0l-.72.72c-.13.13-.13.35,0,.48l4.07,4.07Z"/>
      </g>
    </g>
    <g>
      <text class="cls-3" transform="translate(283.46 103.93)"><tspan x="0" y="0">info@bmturkiye.com.tr</tspan></text>
      <g>
        <path class="cls-1" d="M263.87,103.18c-.66,0-1.3-.19-1.86-.55l-7.28-4.71v6.39c0,.62.5,1.13,1.14,1.13h16c.63,0,1.14-.51,1.14-1.13v-6.39l-7.28,4.71c-.56.36-1.2.55-1.86.55"/>
        <path class="cls-1" d="M271.87,94.16h-16c-.63,0-1.14.51-1.14,1.14v1.55l7.77,5.02c.83.54,1.89.54,2.72,0l7.77-5.02v-1.55c0-.63-.51-1.14-1.14-1.14"/>
      </g>
    </g>
  </g>
  <path class="cls-1" d="M544.15,36.12c-3.09,0-5.59,2.5-5.59,5.59h0v4.47c0,3.09,2.5,5.59,5.59,5.59h4.47c3.09,0,5.59-2.5,5.59-5.59h0v-4.47c0-3.09-2.5-5.59-5.59-5.59h-4.47ZM540.79,46.18v-4.47c0-1.85,1.5-3.35,3.35-3.35h4.47c1.85,0,3.35,1.5,3.35,3.35h0v4.47c0,1.85-1.5,3.35-3.35,3.35h-4.47c-1.85,0-3.35-1.5-3.35-3.35ZM534.09,36.12v2.24h1.12c.62,0,1.12-.5,1.12-1.12h0c0-.62-.5-1.12-1.12-1.12h-1.12ZM531.85,36.12v2.24h2.24v-2.24h-2.24ZM529.61,36.12v7.83c0,.62.5,1.12,1.12,1.12h1.12v-8.95h-2.24ZM528.49,36.12c-.62,0-1.12.5-1.12,1.12h0c0,.62.5,1.12,1.12,1.12h1.12v-2.24h-1.12ZM522.9,37.24c0,.62.5,1.12,1.12,1.12h0c.62,0,1.12-.5,1.12-1.12h0c0-.62-.5-1.12-1.12-1.12h0c-.62,0-1.12.5-1.12,1.12ZM518.43,37.24v2.24c0,.62.5,1.12,1.12,1.12h0c.62,0,1.12-.5,1.12-1.12h0v-2.24c0-.62-.5-1.12-1.12-1.12h0c-.62,0-1.12.5-1.12,1.12ZM513.96,36.12v2.24h1.12c.62,0,1.12-.5,1.12-1.12h0c0-.62-.5-1.12-1.12-1.12h-1.12ZM512.84,36.12c-.62,0-1.12.5-1.12,1.12h0c0,.62.5,1.12,1.12,1.12h1.12v-2.24h-1.12ZM494.95,36.12c-3.09,0-5.59,2.5-5.59,5.59h0v4.47c0,3.09,2.5,5.59,5.59,5.59h4.47c3.09,0,5.59-2.5,5.59-5.59h0v-4.47c0-3.09-2.5-5.59-5.59-5.59h-4.47ZM491.59,46.18v-4.47c0-1.85,1.5-3.35,3.35-3.35h4.47c1.85,0,3.35,1.5,3.35,3.35h0v4.47c0,1.85-1.5,3.35-3.35,3.35h-4.47c-1.85,0-3.35-1.5-3.35-3.35ZM509.49,38.35v2.24h1.12c.62,0,1.12-.5,1.12-1.12h0c0-.62-.5-1.12-1.12-1.12h-1.12ZM508.37,38.35c-.62,0-1.12.5-1.12,1.12h0c0,.62.5,1.12,1.12,1.12h1.12v-2.24h-1.12ZM543.03,43.95c0,1.85,1.5,3.35,3.35,3.35h0c1.85,0,3.35-1.5,3.35-3.35h0c0-1.85-1.5-3.35-3.35-3.35h0c-1.85,0-3.35,1.5-3.35,3.35ZM534.09,41.71c0,.62.5,1.12,1.12,1.12h0c.62,0,1.12-.5,1.12-1.12h0c0-.62-.5-1.12-1.12-1.12h0c-.62,0-1.12.5-1.12,1.12ZM525.14,40.59v2.24h1.12c.62,0,1.12-.5,1.12-1.12h0c0-.62-.5-1.12-1.12-1.12h-1.12ZM524.02,40.59c-.62,0-1.12.5-1.12,1.12h0c0,.62.5,1.12,1.12,1.12h1.12v-2.24h-1.12ZM516.19,40.59v2.24h1.12c.62,0,1.12-.5,1.12-1.12h0c0-.62-.5-1.12-1.12-1.12h-1.12ZM513.96,40.59v4.47h1.12c.62,0,1.12-.5,1.12-1.12h0v-3.35h-2.24ZM512.84,40.59c-.62,0-1.12.5-1.12,1.12h0v4.47c0,.62.5,1.12,1.12,1.12h0c.62,0,1.12-.5,1.12-1.12h0v-5.59h-1.12ZM493.83,43.95c0,1.85,1.5,3.35,3.35,3.35h0c1.85,0,3.35-1.5,3.35-3.35h0c0-1.85-1.5-3.35-3.35-3.35h0c-1.85,0-3.35,1.5-3.35,3.35ZM531.85,42.83v6.71h2.24v-5.59c0-.62-.5-1.12-1.12-1.12h-1.12ZM534.09,45.06v8.95h1.12c.62,0,1.12-.5,1.12-1.12h0v-6.71c0-.62-.5-1.12-1.12-1.12h-1.12ZM527.38,45.06v2.24h1.12c.62,0,1.12-.5,1.12-1.12h0c0-.62-.5-1.12-1.12-1.12h-1.12ZM526.26,45.06c-.62,0-1.12.5-1.12,1.12h0c0,.62.5,1.12,1.12,1.12h1.12v-2.24h-1.12ZM518.43,45.06v4.47h1.12c.62,0,1.12-.5,1.12-1.12h0v-2.24c0-.62-.5-1.12-1.12-1.12h-1.12ZM517.31,45.06c-.62,0-1.12.5-1.12,1.12h0v10.06h1.12c.62,0,1.12-.5,1.12-1.12h0v-10.06h-1.12ZM530.73,47.3c-.62,0-1.12.5-1.12,1.12h0v2.24c0,.62.5,1.12,1.12,1.12h0c.62,0,1.12-.5,1.12-1.12h0v-3.35h-1.12ZM515.08,47.3c-.62,0-1.12.5-1.12,1.12h0c0,.62.5,1.12,1.12,1.12h1.12v-2.24h-1.12ZM525.14,50.65c0,.62.5,1.12,1.12,1.12h0c.62,0,1.12-.5,1.12-1.12h0c0-.62-.5-1.12-1.12-1.12h0c-.62,0-1.12.5-1.12,1.12ZM520.67,50.65v4.47c0,.62.5,1.12,1.12,1.12h1.12v-5.59c0-.62-.5-1.12-1.12-1.12h0c-.62,0-1.12.5-1.12,1.12ZM511.72,50.65c0,.62.5,1.12,1.12,1.12h0c.62,0,1.12-.5,1.12-1.12h0c0-.62-.5-1.12-1.12-1.12h0c-.62,0-1.12.5-1.12,1.12ZM507.25,50.65v4.47c0,.62.5,1.12,1.12,1.12h1.12v-5.59c0-.62-.5-1.12-1.12-1.12h0c-.62,0-1.12.5-1.12,1.12ZM532.97,51.77c-.62,0-1.12.5-1.12,1.12h0v12.3h2.24v-13.42h-1.12ZM515.08,51.77c-.62,0-1.12.5-1.12,1.12h0v2.24c0,.62.5,1.12,1.12,1.12h1.12v-4.47h-1.12ZM549.74,55.13c0,.62.5,1.12,1.12,1.12h0c.62,0,1.12-.5,1.12-1.12h0c0-.62-.5-1.12-1.12-1.12h0c-.62,0-1.12.5-1.12,1.12ZM538.56,54.01v6.71h1.12c.62,0,1.12-.5,1.12-1.12h0v-4.47c0-.62-.5-1.12-1.12-1.12h-1.12ZM537.44,54.01c-.62,0-1.12.5-1.12,1.12h0v6.71c0,.62.5,1.12,1.12,1.12h0c.62,0,1.12-.5,1.12-1.12h0v-7.83h-1.12ZM527.38,55.13v3.35h2.24v-3.35c0-.62-.5-1.12-1.12-1.12h0c-.62,0-1.12.5-1.12,1.12ZM522.9,54.01v2.24h1.12c.62,0,1.12-.5,1.12-1.12h0c0-.62-.5-1.12-1.12-1.12h-1.12ZM509.49,54.01v3.35c0,.62.5,1.12,1.12,1.12h1.12v-3.35c0-.62-.5-1.12-1.12-1.12h-1.12ZM502.78,55.13c0,.62.5,1.12,1.12,1.12h0c.62,0,1.12-.5,1.12-1.12h0c0-.62-.5-1.12-1.12-1.12h0c-.62,0-1.12.5-1.12,1.12ZM491.59,54.01v2.24h1.12c.62,0,1.12-.5,1.12-1.12h0c0-.62-.5-1.12-1.12-1.12h-1.12ZM490.48,54.01c-.62,0-1.12.5-1.12,1.12h0v4.47c0,.62.5,1.12,1.12,1.12h0c.62,0,1.12-.5,1.12-1.12h0v-5.59h-1.12ZM543.03,57.36c0,.62.5,1.12,1.12,1.12h0c.62,0,1.12-.5,1.12-1.12h0c0-.62-.5-1.12-1.12-1.12h0c-.62,0-1.12.5-1.12,1.12ZM534.09,56.25v2.24h2.24v-2.24h-2.24ZM529.61,56.25v3.35c0,.62.5,1.12,1.12,1.12h1.12v-4.47h-2.24ZM526.26,56.25c-.62,0-1.12.5-1.12,1.12h0v10.06h1.12c.62,0,1.12-.5,1.12-1.12h0v-10.06h-1.12ZM511.72,56.25v3.35c0,.62.5,1.12,1.12,1.12h1.12v-3.35c0-.62-.5-1.12-1.12-1.12h-1.12ZM505.01,57.36c0,.62.5,1.12,1.12,1.12h0c.62,0,1.12-.5,1.12-1.12h0c0-.62-.5-1.12-1.12-1.12h0c-.62,0-1.12.5-1.12,1.12ZM500.54,56.25v8.95h2.24v-7.83c0-.62-.5-1.12-1.12-1.12h-1.12ZM498.3,56.25v2.24h2.24v-2.24h-2.24ZM496.07,56.25v3.35c0,.62.5,1.12,1.12,1.12h0c.62,0,1.12-.5,1.12-1.12h0v-3.35h-2.24ZM494.95,56.25c-.62,0-1.12.5-1.12,1.12h0c0,.62.5,1.12,1.12,1.12h1.12v-2.24h-1.12ZM551.98,58.48v4.47h1.12c.62,0,1.12-.5,1.12-1.12h0v-2.24c0-.62-.5-1.12-1.12-1.12h-1.12ZM549.74,58.48v7.83c0,.62.5,1.12,1.12,1.12h0c.62,0,1.12-.5,1.12-1.12h0v-7.83h-2.24ZM547.5,58.48v2.24h2.24v-2.24h-2.24ZM546.39,58.48c-.62,0-1.12.5-1.12,1.12h0c0,.62.5,1.12,1.12,1.12h1.12v-2.24h-1.12ZM520.67,58.48v2.24h1.12c.62,0,1.12-.5,1.12-1.12h0c0-.62-.5-1.12-1.12-1.12h-1.12ZM519.55,58.48c-.62,0-1.12.5-1.12,1.12h0c0,.62.5,1.12,1.12,1.12h1.12v-2.24h-1.12ZM513.96,58.48v2.24h1.12c.62,0,1.12-.5,1.12-1.12h0c0-.62-.5-1.12-1.12-1.12h-1.12ZM502.78,58.48v2.24h1.12c.62,0,1.12-.5,1.12-1.12h0c0-.62-.5-1.12-1.12-1.12h-1.12ZM527.38,60.72v2.24h1.12c.62,0,1.12-.5,1.12-1.12h0c0-.62-.5-1.12-1.12-1.12h-1.12ZM524.02,60.72c-.62,0-1.12.5-1.12,1.12h0c0,.62.5,1.12,1.12,1.12h1.12v-2.24h-1.12ZM509.49,60.72v2.24h1.12c.62,0,1.12-.5,1.12-1.12h0c0-.62-.5-1.12-1.12-1.12h-1.12ZM507.25,60.72v2.24h2.24v-2.24h-2.24ZM506.13,60.72c-.62,0-1.12.5-1.12,1.12h0c0,.62.5,1.12,1.12,1.12h1.12v-2.24h-1.12ZM493.83,61.84v2.24c0,.62.5,1.12,1.12,1.12h0c.62,0,1.12-.5,1.12-1.12h0v-2.24c0-.62-.5-1.12-1.12-1.12h0c-.62,0-1.12.5-1.12,1.12ZM543.03,62.95v2.24h1.12c.62,0,1.12-.5,1.12-1.12h0c0-.62-.5-1.12-1.12-1.12h-1.12ZM540.79,62.95v4.47h1.12c.62,0,1.12-.5,1.12-1.12h0v-3.35h-2.24ZM539.68,62.95c-.62,0-1.12.5-1.12,1.12h0v12.3h2.24v-13.42h-1.12ZM534.09,62.95v2.24h1.12c.62,0,1.12-.5,1.12-1.12h0c0-.62-.5-1.12-1.12-1.12h-1.12ZM530.73,62.95c-.62,0-1.12.5-1.12,1.12h0c0,.62.5,1.12,1.12,1.12h1.12v-2.24h-1.12ZM518.43,64.07v3.35h2.24v-3.35c0-.62-.5-1.12-1.12-1.12h0c-.62,0-1.12.5-1.12,1.12ZM513.96,62.95v3.35c0,.62.5,1.12,1.12,1.12h1.12v-3.35c0-.62-.5-1.12-1.12-1.12h-1.12ZM512.84,62.95c-.62,0-1.12.5-1.12,1.12h0c0,.62.5,1.12,1.12,1.12h1.12v-2.24h-1.12ZM502.78,62.95v2.24h1.12c.62,0,1.12-.5,1.12-1.12h0c0-.62-.5-1.12-1.12-1.12h-1.12ZM499.42,62.95c-.62,0-1.12.5-1.12,1.12h0c0,.62.5,1.12,1.12,1.12h1.12v-2.24h-1.12ZM489.36,64.07c0,.62.5,1.12,1.12,1.12h0c.62,0,1.12-.5,1.12-1.12h0c0-.62-.5-1.12-1.12-1.12h0c-.62,0-1.12.5-1.12,1.12ZM545.27,66.31v2.24c0,.62.5,1.12,1.12,1.12h1.12v-3.35c0-.62-.5-1.12-1.12-1.12h0c-.62,0-1.12.5-1.12,1.12ZM537.44,65.19c-.62,0-1.12.5-1.12,1.12h0c0,.62.5,1.12,1.12,1.12h1.12v-2.24h-1.12ZM522.9,65.19v2.24h2.24v-2.24h-2.24ZM520.67,65.19v3.35c0,.62.5,1.12,1.12,1.12h0c.62,0,1.12-.5,1.12-1.12h0v-3.35h-2.24ZM516.19,65.19v2.24h2.24v-2.24h-2.24ZM509.49,65.19v8.95h2.24v-7.83c0-.62-.5-1.12-1.12-1.12h-1.12ZM508.37,65.19c-.62,0-1.12.5-1.12,1.12h0c0,.62.5,1.12,1.12,1.12h1.12v-2.24h-1.12ZM491.59,66.31c0,.62.5,1.12,1.12,1.12h0c.62,0,1.12-.5,1.12-1.12h0c0-.62-.5-1.12-1.12-1.12h0c-.62,0-1.12.5-1.12,1.12ZM551.98,68.55v2.24c0,.62.5,1.12,1.12,1.12h0c.62,0,1.12-.5,1.12-1.12h0v-2.24c0-.62-.5-1.12-1.12-1.12h0c-.62,0-1.12.5-1.12,1.12ZM547.5,67.43v31.31h1.12c.62,0,1.12-.5,1.12-1.12h0v-29.07c0-.62-.5-1.12-1.12-1.12h-1.12ZM534.09,68.55c0,.62.5,1.12,1.12,1.12h0c.62,0,1.12-.5,1.12-1.12h0c0-.62-.5-1.12-1.12-1.12h0c-.62,0-1.12.5-1.12,1.12ZM529.61,67.43v2.24h1.12c.62,0,1.12-.5,1.12-1.12h0c0-.62-.5-1.12-1.12-1.12h-1.12ZM528.49,67.43c-.62,0-1.12.5-1.12,1.12h0c0,.62.5,1.12,1.12,1.12h1.12v-2.24h-1.12ZM502.78,68.55c0,.62.5,1.12,1.12,1.12h0c.62,0,1.12-.5,1.12-1.12h0c0-.62-.5-1.12-1.12-1.12h0c-.62,0-1.12.5-1.12,1.12ZM498.3,67.43v8.95h2.24v-7.83c0-.62-.5-1.12-1.12-1.12h-1.12ZM497.19,67.43c-.62,0-1.12.5-1.12,1.12h0v6.71c0,.62.5,1.12,1.12,1.12h1.12v-8.95h-1.12ZM537.44,69.66c-.62,0-1.12.5-1.12,1.12h0c0,.62.5,1.12,1.12,1.12h1.12v-2.24h-1.12ZM531.85,70.78v3.35h2.24v-3.35c0-.62-.5-1.12-1.12-1.12h0c-.62,0-1.12.5-1.12,1.12ZM513.96,69.66v4.47h2.24v-3.35c0-.62-.5-1.12-1.12-1.12h-1.12ZM511.72,69.66v4.47h2.24v-4.47h-2.24ZM500.54,69.66v6.71h1.12c.62,0,1.12-.5,1.12-1.12h0v-4.47c0-.62-.5-1.12-1.12-1.12h-1.12ZM493.83,69.66v4.47h2.24v-4.47h-2.24ZM491.59,69.66v3.35c0,.62.5,1.12,1.12,1.12h1.12v-4.47h-2.24ZM490.48,69.66c-.62,0-1.12.5-1.12,1.12h0c0,.62.5,1.12,1.12,1.12h1.12v-2.24h-1.12ZM549.74,71.9v2.24h1.12c.62,0,1.12-.5,1.12-1.12h0c0-.62-.5-1.12-1.12-1.12h-1.12ZM534.09,71.9v3.35c0,.62.5,1.12,1.12,1.12h1.12v-3.35c0-.62-.5-1.12-1.12-1.12h-1.12ZM529.61,71.9v2.24h2.24v-2.24h-2.24ZM528.49,71.9c-.62,0-1.12.5-1.12,1.12h0c0,.62.5,1.12,1.12,1.12h1.12v-2.24h-1.12ZM520.67,73.02c0,.62.5,1.12,1.12,1.12h0c.62,0,1.12-.5,1.12-1.12h0c0-.62-.5-1.12-1.12-1.12h0c-.62,0-1.12.5-1.12,1.12ZM516.19,71.9v2.24h1.12c.62,0,1.12-.5,1.12-1.12h0c0-.62-.5-1.12-1.12-1.12h-1.12ZM508.37,71.9c-.62,0-1.12.5-1.12,1.12h0c0,.62.5,1.12,1.12,1.12h1.12v-2.24h-1.12ZM502.78,71.9v2.24h1.12c.62,0,1.12-.5,1.12-1.12h0c0-.62-.5-1.12-1.12-1.12h-1.12ZM551.98,75.25c0,.62.5,1.12,1.12,1.12h0c.62,0,1.12-.5,1.12-1.12h0c0-.62-.5-1.12-1.12-1.12h0c-.62,0-1.12.5-1.12,1.12ZM545.27,74.14v8.95h2.24v-8.95h-2.24ZM543.03,74.14v2.24h2.24v-2.24h-2.24ZM540.79,74.14v8.95h2.24v-8.95h-2.24ZM536.32,74.14v3.35c0,.62.5,1.12,1.12,1.12h0c.62,0,1.12-.5,1.12-1.12h0v-3.35h-2.24ZM505.01,75.25v3.35h1.12c.62,0,1.12-.5,1.12-1.12h0v-2.24c0-.62-.5-1.12-1.12-1.12h0c-.62,0-1.12.5-1.12,1.12ZM489.36,75.25c0,.62.5,1.12,1.12,1.12h0c.62,0,1.12-.5,1.12-1.12h0c0-.62-.5-1.12-1.12-1.12h0c-.62,0-1.12.5-1.12,1.12ZM531.85,76.37v12.3c0,.62.5,1.12,1.12,1.12h1.12v-12.3c0-.62-.5-1.12-1.12-1.12h-1.12ZM530.73,76.37c-.62,0-1.12.5-1.12,1.12h0v2.24c0,.62.5,1.12,1.12,1.12h1.12v-4.47h-1.12ZM525.14,77.49c0,.62.5,1.12,1.12,1.12h0c.62,0,1.12-.5,1.12-1.12h0c0-.62-.5-1.12-1.12-1.12h0c-.62,0-1.12.5-1.12,1.12ZM520.67,77.49c0,.62.5,1.12,1.12,1.12h0c.62,0,1.12-.5,1.12-1.12h0c0-.62-.5-1.12-1.12-1.12h0c-.62,0-1.12.5-1.12,1.12ZM509.49,77.49c0,.62.5,1.12,1.12,1.12h0c.62,0,1.12-.5,1.12-1.12h0c0-.62-.5-1.12-1.12-1.12h0c-.62,0-1.12.5-1.12,1.12ZM503.89,76.37c-.62,0-1.12.5-1.12,1.12h0c0,.62.5,1.12,1.12,1.12h1.12v-2.24h-1.12ZM493.83,77.49c0,.62.5,1.12,1.12,1.12h0c.62,0,1.12-.5,1.12-1.12h0c0-.62-.5-1.12-1.12-1.12h0c-.62,0-1.12.5-1.12,1.12ZM543.03,78.61v13.42h1.12c.62,0,1.12-.5,1.12-1.12h0v-12.3h-2.24ZM539.68,78.61c-.62,0-1.12.5-1.12,1.12h0v3.35h2.24v-4.47h-1.12ZM534.09,78.61v12.3c0,.62.5,1.12,1.12,1.12h1.12v-12.3c0-.62-.5-1.12-1.12-1.12h-1.12ZM522.9,79.73v2.24c0,.62.5,1.12,1.12,1.12h0c.62,0,1.12-.5,1.12-1.12h0v-2.24c0-.62-.5-1.12-1.12-1.12h0c-.62,0-1.12.5-1.12,1.12ZM518.43,79.73v3.35h1.12c.62,0,1.12-.5,1.12-1.12h0v-2.24c0-.62-.5-1.12-1.12-1.12h0c-.62,0-1.12.5-1.12,1.12ZM513.96,78.61v3.35c0,.62.5,1.12,1.12,1.12h1.12v-3.35c0-.62-.5-1.12-1.12-1.12h-1.12ZM512.84,78.61c-.62,0-1.12.5-1.12,1.12h0c0,.62.5,1.12,1.12,1.12h1.12v-2.24h-1.12ZM507.25,79.73c0,.62.5,1.12,1.12,1.12h0c.62,0,1.12-.5,1.12-1.12h0c0-.62-.5-1.12-1.12-1.12h0c-.62,0-1.12.5-1.12,1.12ZM498.3,79.73v2.24c0,.62.5,1.12,1.12,1.12h1.12v-3.35c0-.62-.5-1.12-1.12-1.12h0c-.62,0-1.12.5-1.12,1.12ZM489.36,79.73v2.24c0,.62.5,1.12,1.12,1.12h1.12v-3.35c0-.62-.5-1.12-1.12-1.12h0c-.62,0-1.12.5-1.12,1.12ZM536.32,80.85v2.24h2.24v-2.24h-2.24ZM516.19,80.85v6.71h2.24v-6.71h-2.24ZM505.01,80.85v2.24h1.12c.62,0,1.12-.5,1.12-1.12h0c0-.62-.5-1.12-1.12-1.12h-1.12ZM502.78,80.85v2.24h2.24v-2.24h-2.24ZM500.54,80.85v2.24h2.24v-2.24h-2.24ZM491.59,80.85v2.24h1.12c.62,0,1.12-.5,1.12-1.12h0c0-.62-.5-1.12-1.12-1.12h-1.12ZM551.98,84.2v3.35h1.12c.62,0,1.12-.5,1.12-1.12h0v-2.24c0-.62-.5-1.12-1.12-1.12h0c-.62,0-1.12.5-1.12,1.12ZM527.38,84.2v2.24c0,.62.5,1.12,1.12,1.12h0c.62,0,1.12-.5,1.12-1.12h0v-2.24c0-.62-.5-1.12-1.12-1.12h0c-.62,0-1.12.5-1.12,1.12ZM511.72,83.08v3.35c0,.62.5,1.12,1.12,1.12h1.12v-3.35c0-.62-.5-1.12-1.12-1.12h-1.12ZM509.49,83.08v2.24h2.24v-2.24h-2.24ZM508.37,83.08c-.62,0-1.12.5-1.12,1.12h0c0,.62.5,1.12,1.12,1.12h1.12v-2.24h-1.12ZM549.74,85.32v2.24h2.24v-2.24h-2.24ZM538.56,86.44c0,.62.5,1.12,1.12,1.12h0c.62,0,1.12-.5,1.12-1.12h0c0-.62-.5-1.12-1.12-1.12h0c-.62,0-1.12.5-1.12,1.12ZM522.9,86.44c0,.62.5,1.12,1.12,1.12h0c.62,0,1.12-.5,1.12-1.12h0c0-.62-.5-1.12-1.12-1.12h0c-.62,0-1.12.5-1.12,1.12ZM518.43,85.32v2.24h1.12c.62,0,1.12-.5,1.12-1.12h0c0-.62-.5-1.12-1.12-1.12h-1.12ZM513.96,85.32v3.35c0,.62.5,1.12,1.12,1.12h0c.62,0,1.12-.5,1.12-1.12h0v-3.35h-2.24ZM494.95,85.32c-3.09,0-5.59,2.5-5.59,5.59h0v4.47c0,3.09,2.5,5.59,5.59,5.59h4.47c3.09,0,5.59-2.5,5.59-5.59h0v-4.47c0-3.09-2.5-5.59-5.59-5.59h-4.47ZM491.59,95.38v-4.47c0-1.85,1.5-3.35,3.35-3.35h4.47c1.85,0,3.35,1.5,3.35,3.35h0v4.47c0,1.85-1.5,3.35-3.35,3.35h-4.47c-1.85,0-3.35-1.5-3.35-3.35ZM545.27,87.55v2.24h2.24v-2.24h-2.24ZM520.67,88.67c0,.62.5,1.12,1.12,1.12h0c.62,0,1.12-.5,1.12-1.12h0c0-.62-.5-1.12-1.12-1.12h0c-.62,0-1.12.5-1.12,1.12ZM509.49,88.67v4.47c0,.62.5,1.12,1.12,1.12h0c.62,0,1.12-.5,1.12-1.12h0v-4.47c0-.62-.5-1.12-1.12-1.12h0c-.62,0-1.12.5-1.12,1.12ZM551.98,89.79v2.24h1.12c.62,0,1.12-.5,1.12-1.12h0c0-.62-.5-1.12-1.12-1.12h-1.12ZM549.74,89.79v6.71h2.24v-6.71h-2.24ZM540.79,89.79v3.35c0,.62.5,1.12,1.12,1.12h0c.62,0,1.12-.5,1.12-1.12h0v-3.35h-2.24ZM538.56,89.79v2.24h2.24v-2.24h-2.24ZM536.32,89.79v6.71h1.12c.62,0,1.12-.5,1.12-1.12h0v-5.59h-2.24ZM529.61,89.79v2.24h1.12c.62,0,1.12-.5,1.12-1.12h0c0-.62-.5-1.12-1.12-1.12h-1.12ZM528.49,89.79c-.62,0-1.12.5-1.12,1.12h0c0,.62.5,1.12,1.12,1.12h1.12v-2.24h-1.12ZM522.9,90.91v8.95c0,.62.5,1.12,1.12,1.12h0c.62,0,1.12-.5,1.12-1.12h0v-8.95c0-.62-.5-1.12-1.12-1.12h0c-.62,0-1.12.5-1.12,1.12ZM518.43,90.91v3.35h1.12c.62,0,1.12-.5,1.12-1.12h0v-2.24c0-.62-.5-1.12-1.12-1.12h0c-.62,0-1.12.5-1.12,1.12ZM493.83,93.15c0,1.85,1.5,3.35,3.35,3.35h0c1.85,0,3.35-1.5,3.35-3.35h0c0-1.85-1.5-3.35-3.35-3.35h0c-1.85,0-3.35,1.5-3.35,3.35ZM546.39,92.03c-.62,0-1.12.5-1.12,1.12h0v5.59h2.24v-6.71h-1.12ZM531.85,93.15c0,.62.5,1.12,1.12,1.12h0c.62,0,1.12-.5,1.12-1.12h0c0-.62-.5-1.12-1.12-1.12h0c-.62,0-1.12.5-1.12,1.12ZM525.14,92.03v4.47h1.12c.62,0,1.12-.5,1.12-1.12h0v-2.24c0-.62-.5-1.12-1.12-1.12h-1.12ZM516.19,92.03v2.24h2.24v-2.24h-2.24ZM515.08,92.03c-.62,0-1.12.5-1.12,1.12h0c0,.62.5,1.12,1.12,1.12h1.12v-2.24h-1.12ZM551.98,94.26v2.24h1.12c.62,0,1.12-.5,1.12-1.12h0c0-.62-.5-1.12-1.12-1.12h-1.12ZM535.2,94.26c-.62,0-1.12.5-1.12,1.12h0v4.47c0,.62.5,1.12,1.12,1.12h0c.62,0,1.12-.5,1.12-1.12h0v-5.59h-1.12ZM511.72,95.38c0,.62.5,1.12,1.12,1.12h0c.62,0,1.12-.5,1.12-1.12h0c0-.62-.5-1.12-1.12-1.12h0c-.62,0-1.12.5-1.12,1.12ZM543.03,96.5v2.24h2.24v-2.24h-2.24ZM541.91,96.5c-.62,0-1.12.5-1.12,1.12h0c0,.62.5,1.12,1.12,1.12h1.12v-2.24h-1.12ZM532.97,96.5c-.62,0-1.12.5-1.12,1.12h0c0,.62.5,1.12,1.12,1.12h1.12v-2.24h-1.12ZM521.79,96.5c-.62,0-1.12.5-1.12,1.12h0c0,.62.5,1.12,1.12,1.12h1.12v-2.24h-1.12ZM516.19,97.62c0,.62.5,1.12,1.12,1.12h0c.62,0,1.12-.5,1.12-1.12h0c0-.62-.5-1.12-1.12-1.12h0c-.62,0-1.12.5-1.12,1.12ZM509.49,96.5v2.24h1.12c.62,0,1.12-.5,1.12-1.12h0c0-.62-.5-1.12-1.12-1.12h-1.12ZM508.37,96.5c-.62,0-1.12.5-1.12,1.12h0v2.24c0,.62.5,1.12,1.12,1.12h0c.62,0,1.12-.5,1.12-1.12h0v-3.35h-1.12ZM549.74,99.85c0,.62.5,1.12,1.12,1.12h0c.62,0,1.12-.5,1.12-1.12h0c0-.62-.5-1.12-1.12-1.12h0c-.62,0-1.12.5-1.12,1.12ZM529.61,98.74v2.24h1.12c.62,0,1.12-.5,1.12-1.12h0c0-.62-.5-1.12-1.12-1.12h-1.12ZM528.49,98.74c-.62,0-1.12.5-1.12,1.12h0c0,.62.5,1.12,1.12,1.12h1.12v-2.24h-1.12ZM518.43,99.85c0,.62.5,1.12,1.12,1.12h0c.62,0,1.12-.5,1.12-1.12h0c0-.62-.5-1.12-1.12-1.12h0c-.62,0-1.12.5-1.12,1.12Z"/>
</svg>