<?xml version="1.0" encoding="UTF-8"?>
<svg id="Layer_1" data-name="Layer 1" xmlns="http://www.w3.org/2000/svg" viewBox="0 0 595.28 58.79">
  <defs>
    <style>
      .cls-1 {
        fill: #2f2c27;
      }
    </style>
  </defs>
  <g>
    <path class="cls-1" d="M58.81,17.27c-.75,0-1.5.12-2.24.35-.39.12-2.29.27-2.52.27-1.98,0-4.17-.3-5.56-.57-.41-.08-.84-.12-1.26-.12-1.57,0-3.09.59-4.28,1.67-1.33,1.21-2.07,2.99-2.02,4.9.08,3.25.98,6.54,1.94,10.02.32,1.17.65,2.38.96,3.62.45,1.82,1.1,2.97,2.02,3.62.55.39,1.17.58,1.85.58.48,0,.98-.1,1.51-.29,1.61-.59,3.62-1.99,4.8-2.87,1.54,2.12,3,3.15,4.46,3.15h0s.05,0,.07,0c2.49-.06,3.36-2.41,3.8-4.18.09-.38.2-.78.3-1.2.96-3.82,2.28-9.05,2.59-12.41.15-1.6-.38-3.16-1.5-4.39-1.23-1.35-3.03-2.13-4.93-2.13ZM61.02,34.01c-.28,1.03-.55,2.01-.76,2.87-.42,1.7-1.02,2.55-1.76,2.55-.52,0-1.42-.41-2.81-2.33,2.42-2.01,4.57-4.21,6.19-6.33-.28,1.09-.57,2.18-.86,3.23ZM59.76,30.05c-2.41,2.94-5.55,5.61-7.67,7.13-.05.04-.12.08-.19.14-.53.39-1.65,1.19-2.58,1.67-.53.28-1.03.42-1.46.42-.48,0-.87-.17-1.1-.48-.32-.43-.61-1.12-.84-2.05-.21-.85-.48-1.82-.76-2.85-.66-2.42-1.41-5.16-1.8-7.51-.28-1.68-.28-2.4-.28-2.75,0-.05,0-.1,0-.14-.02-1.26.44-2.39,1.32-3.18.79-.72,1.8-1.11,2.84-1.11.28,0,.55.03.83.08,1.3.26,2.84.46,4.25.55-.74.51-1.31.83-2.05.83-.26,0-.53-.04-.84-.12-.09-.02-.18-.03-.27-.03-.49,0-.92.33-1.04.81-.15.57.2,1.16.77,1.31.51.13.98.2,1.42.2,1.41,0,2.36-.65,3.45-1.4,1.12-.77,2.39-1.64,4.54-2.12.17-.02.35-.03.52-.03,1.87,0,3.49,1.02,4.04,2.54.9,2.47-1.19,5.76-3.1,8.09Z"/>
    <path class="cls-1" d="M79.12,28.96c.04-.09.06-.19.08-.29.01-.1.02-.22.02-.34v-1.85c0-.37-.09-.71-.28-1.02-.19-.31-.43-.55-.74-.73-.31-.18-.64-.27-1.01-.27h-7.44v9.85h7.81c.37,0,.71-.09,1.02-.27.31-.18.55-.43.74-.74.19-.31.28-.65.28-1.01v-2.04c0-.23-.05-.46-.14-.68-.09-.23-.21-.43-.34-.6ZM71.86,26.59h5.2v1.64h-5.2v-1.64ZM77.45,32.18h-5.58v-1.81h5.58v1.81Z"/>
    <polygon class="cls-1" points="86.62 28.44 83.28 24.46 81.09 24.46 81.09 34.31 83.21 34.31 83.21 27.72 86.62 31.75 90.01 27.7 90.01 34.31 92.14 34.31 92.14 24.46 89.94 24.46 86.62 28.44"/>
    <polygon class="cls-1" points="97.7 26.59 101.56 26.59 101.56 34.31 103.69 34.31 103.69 26.59 107.55 26.59 107.55 24.46 97.7 24.46 97.7 26.59"/>
    <rect class="cls-1" x="109.04" y="24.46" width="2.12" height="2.16"/>
    <rect class="cls-1" x="116.75" y="24.46" width="2.15" height="2.16"/>
    <path class="cls-1" d="M116.75,32.18h-5.58v-4.39h-2.12v4.5c0,.37.09.7.27,1.02.18.31.43.55.74.74.31.18.65.27,1.02.27h5.8c.36,0,.7-.09,1-.27.3-.18.55-.43.74-.74.18-.31.28-.65.28-1.02v-4.5h-2.15v4.39Z"/>
    <path class="cls-1" d="M129.21,24.77c-.31-.18-.64-.27-1.02-.27h-7.81v9.84h2.12v-3.23h2.81s2.72,3.23,2.72,3.23h2.19v-.72l-2.13-2.52h.11c.37,0,.71-.09,1.02-.27.31-.18.55-.43.74-.74.19-.31.28-.65.28-1.01v-2.55c0-.36-.09-.7-.28-1.01-.19-.31-.43-.56-.74-.74ZM128.09,28.96h-5.58v-2.34h5.58v2.34Z"/>
    <polygon class="cls-1" points="135.78 28.32 133.85 28.32 133.85 24.46 131.71 24.46 131.71 34.31 133.85 34.31 133.85 30.45 135.78 30.45 139.01 34.31 141.22 34.31 141.22 33.57 137.71 29.38 141.22 25.2 141.22 24.46 139.01 24.46 135.78 28.32"/>
    <rect class="cls-1" x="142.71" y="24.46" width="2.1" height="2.16"/>
    <rect class="cls-1" x="142.71" y="27.79" width="2.1" height="6.52"/>
    <polygon class="cls-1" points="151.92 28.34 148.83 24.46 146.3 24.46 150.86 30.63 150.86 34.31 152.99 34.31 152.99 30.64 157.56 24.46 155 24.46 151.92 28.34"/>
    <polygon class="cls-1" points="168.15 26.59 168.15 24.46 159.05 24.46 159.05 34.31 168.15 34.31 168.15 32.18 161.2 32.18 161.2 30.45 166.8 30.45 166.8 28.32 161.2 28.32 161.2 26.59 168.15 26.59"/>
  </g>
  <g>
    <path class="cls-1" d="M508.9,20.15c-.32-.33-.69-.59-1.12-.78-.43-.18-.9-.27-1.41-.27h-2.86v7.55h2.86c.51,0,.98-.09,1.42-.28.44-.18.81-.44,1.12-.78.31-.33.56-.73.73-1.2.17-.46.26-.97.26-1.53s-.09-1.07-.26-1.53c-.17-.46-.42-.86-.73-1.19ZM508.82,24.08c-.13.37-.31.68-.56.93s-.53.46-.86.6c-.33.14-.7.22-1.09.22h-1.95v-5.91h1.95c.4,0,.76.07,1.09.22.33.14.62.35.86.6.24.26.43.57.56.93.13.36.19.76.19,1.2s-.06.84-.19,1.21Z"/>
    <polygon class="cls-1" points="513.69 26.65 518.24 26.65 518.24 25.83 514.54 25.83 514.54 23.17 517.66 23.17 517.66 22.35 514.54 22.35 514.54 19.91 518.27 19.91 518.27 19.09 513.69 19.09 513.69 26.65"/>
    <path class="cls-1" d="M527.58,22.41c0,.53,0,.99.02,1.4s.03.77.05,1.07c.01.19.03.35.05.51l-4.61-6.3h-.78v7.55h.85v-4.2c0-.15,0-.34-.02-.55-.01-.21-.03-.47-.05-.76-.01-.21-.03-.46-.05-.72l4.61,6.23h.79v-7.55h-.85v3.31Z"/>
    <polygon class="cls-1" points="532.01 19.91 534.19 19.91 534.19 26.65 535.04 26.65 535.04 19.91 537.27 19.91 537.27 19.09 532.01 19.09 532.01 19.91"/>
    <path class="cls-1" d="M542.36,19.09l-2.91,7.55h.88l.79-2.08h3.35l.79,2.08h.92l-2.9-7.55h-.92ZM543.42,21.79l.74,1.94h-2.71l.72-1.9c.04-.11.09-.25.15-.43.07-.18.13-.37.21-.58.08-.21.15-.41.21-.6.03-.08.04-.12.06-.19.02.06.04.11.07.18.07.21.15.42.23.64.08.22.15.42.21.6s.1.29.12.34Z"/>
    <polygon class="cls-1" points="554.17 25.83 550.54 25.83 550.54 19.09 549.69 19.09 549.69 26.65 554.17 26.65 554.17 25.83"/>
    <path class="cls-1" d="M504.7,33.67c.25-.27.56-.47.9-.63.35-.15.72-.23,1.12-.23s.78.09,1.14.26c.36.18.7.43,1.01.76l.58-.59c-.19-.26-.43-.48-.72-.67s-.6-.34-.94-.45-.7-.16-1.07-.16c-.53,0-1.02.1-1.47.29-.45.19-.84.47-1.17.81-.33.35-.6.76-.78,1.23-.19.47-.28.98-.28,1.53s.09,1.09.26,1.56c.18.47.43.88.76,1.23.33.35.71.61,1.15.8s.93.28,1.46.28c.35,0,.7-.04,1.03-.13.33-.09.64-.21.92-.36.28-.15.51-.33.69-.52l-.44-.7c-.18.17-.38.32-.59.45-.22.13-.45.23-.7.3s-.51.1-.78.1c-.43,0-.82-.07-1.18-.22-.35-.14-.66-.35-.91-.61-.26-.26-.46-.58-.6-.95-.14-.37-.22-.78-.22-1.24s.07-.83.22-1.2c.14-.37.34-.69.6-.96Z"/>
    <polygon class="cls-1" points="514.49 32.04 513.64 32.04 513.64 39.59 518.12 39.59 518.12 38.77 514.49 38.77 514.49 32.04"/>
    <polygon class="cls-1" points="522.17 32.84 523.45 32.84 523.45 38.8 522.17 38.8 522.17 39.59 525.6 39.59 525.6 38.8 524.3 38.8 524.3 32.84 525.6 32.84 525.6 32.04 522.17 32.04 522.17 32.84"/>
    <path class="cls-1" d="M535.36,35.35c0,.53,0,.99.02,1.4s.03.77.05,1.07c.01.19.03.35.05.51l-4.61-6.3h-.78v7.55h.85v-4.2c0-.15,0-.34-.02-.55-.01-.21-.03-.47-.05-.76-.01-.21-.03-.46-.05-.72l4.61,6.23h.79v-7.55h-.85v3.31Z"/>
    <polygon class="cls-1" points="540.71 32.84 542 32.84 542 38.8 540.71 38.8 540.71 39.59 544.15 39.59 544.15 38.8 542.85 38.8 542.85 32.84 544.15 32.84 544.15 32.04 540.71 32.04 540.71 32.84"/>
    <path class="cls-1" d="M553.17,38.44c-.22.13-.45.23-.7.3s-.51.1-.78.1c-.43,0-.82-.07-1.18-.22-.35-.14-.66-.35-.91-.61-.26-.26-.46-.58-.6-.95-.14-.37-.22-.78-.22-1.24s.07-.83.22-1.2c.14-.37.34-.69.6-.96.25-.27.56-.47.9-.63.35-.15.72-.23,1.12-.23s.78.09,1.14.26c.36.18.7.43,1.01.76l.58-.59c-.19-.26-.43-.48-.72-.67s-.6-.34-.94-.45-.7-.16-1.07-.16c-.53,0-1.02.1-1.47.29-.45.19-.84.47-1.17.81-.33.35-.6.76-.78,1.23-.19.47-.28.98-.28,1.53s.09,1.09.26,1.56c.18.47.43.88.76,1.23.33.35.71.61,1.15.8s.93.28,1.46.28c.35,0,.7-.04,1.03-.13.33-.09.64-.21.92-.36.28-.15.51-.33.69-.52l-.44-.7c-.18.17-.38.32-.59.45Z"/>
  </g>
</svg>