<?xml version="1.0" encoding="UTF-8"?>
<svg id="Layer_1" data-name="Layer 1" xmlns="http://www.w3.org/2000/svg" viewBox="0 0 595.28 111">
  <defs>
    <style>
      .cls-1 {
        fill: #2f2c27;
      }
    </style>
  </defs>
  <g>
    <path class="cls-1" d="M56.66,43.11c-.75,0-1.5.12-2.24.35-.39.12-2.29.27-2.52.27-1.98,0-4.17-.3-5.56-.57-.41-.08-.84-.12-1.26-.12-1.57,0-3.09.59-4.28,1.67-1.33,1.21-2.07,2.99-2.02,4.9.08,3.25.98,6.54,1.94,10.02.32,1.17.65,2.38.96,3.62.45,1.82,1.1,2.97,2.02,3.62.55.39,1.17.58,1.85.58.48,0,.98-.1,1.51-.29,1.61-.59,3.62-1.99,4.8-2.87,1.54,2.12,3,3.15,4.46,3.15h0s.05,0,.07,0c2.49-.06,3.36-2.41,3.8-4.18.09-.38.2-.78.3-1.2.96-3.82,2.28-9.05,2.59-12.41.15-1.6-.38-3.16-1.5-4.39-1.23-1.35-3.03-2.13-4.93-2.13ZM58.88,59.85c-.28,1.03-.55,2.01-.76,2.87-.42,1.7-1.02,2.55-1.76,2.55-.52,0-1.42-.41-2.81-2.33,2.42-2.01,4.57-4.21,6.19-6.33-.28,1.09-.57,2.18-.86,3.23ZM57.61,55.89c-2.41,2.94-5.55,5.61-7.67,7.13-.05.04-.12.08-.19.14-.53.39-1.65,1.19-2.58,1.67-.53.28-1.03.42-1.46.42-.48,0-.87-.17-1.1-.48-.32-.43-.61-1.12-.84-2.05-.21-.85-.48-1.82-.76-2.85-.66-2.42-1.41-5.16-1.8-7.51-.28-1.68-.28-2.4-.28-2.75,0-.05,0-.1,0-.14-.02-1.26.44-2.39,1.32-3.18.79-.72,1.8-1.11,2.84-1.11.28,0,.55.03.83.08,1.3.26,2.84.46,4.25.55-.74.51-1.31.83-2.05.83-.26,0-.53-.04-.84-.12-.09-.02-.18-.03-.27-.03-.49,0-.92.33-1.04.81-.15.57.2,1.16.77,1.31.51.13.98.2,1.42.2,1.41,0,2.36-.65,3.45-1.4,1.12-.77,2.39-1.64,4.54-2.12.17-.02.35-.03.52-.03,1.87,0,3.49,1.02,4.04,2.54.9,2.47-1.19,5.76-3.1,8.09Z"/>
    <path class="cls-1" d="M76.97,54.8c.04-.09.06-.19.08-.29.01-.1.02-.22.02-.34v-1.85c0-.37-.09-.71-.28-1.02-.19-.31-.43-.55-.74-.73-.31-.18-.64-.27-1.01-.27h-7.44v9.85h7.81c.37,0,.71-.09,1.02-.27.31-.18.55-.43.74-.74.19-.31.28-.65.28-1.01v-2.04c0-.23-.05-.46-.14-.68-.09-.23-.21-.43-.34-.6ZM69.72,52.43h5.2v1.64h-5.2v-1.64ZM75.3,58.02h-5.58v-1.81h5.58v1.81Z"/>
    <polygon class="cls-1" points="84.47 54.28 81.13 50.3 78.94 50.3 78.94 60.15 81.06 60.15 81.06 53.56 84.47 57.59 87.86 53.54 87.86 60.15 90 60.15 90 50.3 87.79 50.3 84.47 54.28"/>
    <polygon class="cls-1" points="95.55 52.43 99.41 52.43 99.41 60.15 101.54 60.15 101.54 52.43 105.4 52.43 105.4 50.3 95.55 50.3 95.55 52.43"/>
    <rect class="cls-1" x="106.9" y="50.3" width="2.12" height="2.16"/>
    <rect class="cls-1" x="114.6" y="50.3" width="2.15" height="2.16"/>
    <path class="cls-1" d="M114.6,58.02h-5.58v-4.39h-2.12v4.5c0,.37.09.7.27,1.02.18.31.43.55.74.74.31.18.65.27,1.02.27h5.8c.36,0,.7-.09,1-.27.3-.18.55-.43.74-.74.18-.31.28-.65.28-1.02v-4.5h-2.15v4.39Z"/>
    <path class="cls-1" d="M127.07,50.61c-.31-.18-.64-.27-1.02-.27h-7.81v9.84h2.12v-3.23h2.81s2.72,3.23,2.72,3.23h2.19v-.72l-2.13-2.52h.11c.37,0,.71-.09,1.02-.27.31-.18.55-.43.74-.74.19-.31.28-.65.28-1.01v-2.55c0-.36-.09-.7-.28-1.01-.19-.31-.43-.56-.74-.74ZM125.94,54.8h-5.58v-2.34h5.58v2.34Z"/>
    <polygon class="cls-1" points="133.63 54.16 131.7 54.16 131.7 50.3 129.56 50.3 129.56 60.15 131.7 60.15 131.7 56.29 133.63 56.29 136.86 60.15 139.07 60.15 139.07 59.41 135.56 55.23 139.07 51.04 139.07 50.3 136.86 50.3 133.63 54.16"/>
    <rect class="cls-1" x="140.56" y="50.3" width="2.1" height="2.16"/>
    <rect class="cls-1" x="140.56" y="53.63" width="2.1" height="6.52"/>
    <polygon class="cls-1" points="149.77 54.19 146.68 50.3 144.15 50.3 148.71 56.47 148.71 60.15 150.84 60.15 150.84 56.48 155.41 50.3 152.85 50.3 149.77 54.19"/>
    <polygon class="cls-1" points="166 52.43 166 50.3 156.9 50.3 156.9 60.15 166 60.15 166 58.02 159.05 58.02 159.05 56.29 164.65 56.29 164.65 54.16 159.05 54.16 159.05 52.43 166 52.43"/>
  </g>
  <g>
    <path class="cls-1" d="M506.75,45.99c-.32-.33-.69-.59-1.12-.78-.43-.18-.9-.27-1.41-.27h-2.86v7.55h2.86c.51,0,.98-.09,1.42-.28.44-.18.81-.44,1.12-.78.31-.33.56-.73.73-1.2.17-.46.26-.97.26-1.53s-.09-1.07-.26-1.53c-.17-.46-.42-.86-.73-1.19ZM506.68,49.92c-.13.37-.31.68-.56.93s-.53.46-.86.6c-.33.14-.7.22-1.09.22h-1.95v-5.91h1.95c.4,0,.76.07,1.09.22.33.14.62.35.86.6.24.26.43.57.56.93.13.36.19.76.19,1.2s-.06.84-.19,1.21Z"/>
    <polygon class="cls-1" points="511.54 52.49 516.1 52.49 516.1 51.67 512.39 51.67 512.39 49.01 515.51 49.01 515.51 48.19 512.39 48.19 512.39 45.75 516.12 45.75 516.12 44.93 511.54 44.93 511.54 52.49"/>
    <path class="cls-1" d="M525.43,48.25c0,.53,0,.99.02,1.4s.03.77.05,1.07c.01.19.03.35.05.51l-4.61-6.3h-.78v7.55h.85v-4.2c0-.15,0-.34-.02-.55-.01-.21-.03-.47-.05-.76-.01-.21-.03-.46-.05-.72l4.61,6.23h.79v-7.55h-.85v3.31Z"/>
    <polygon class="cls-1" points="529.86 45.75 532.04 45.75 532.04 52.49 532.9 52.49 532.9 45.75 535.12 45.75 535.12 44.93 529.86 44.93 529.86 45.75"/>
    <path class="cls-1" d="M540.21,44.93l-2.91,7.55h.88l.79-2.08h3.35l.79,2.08h.92l-2.9-7.55h-.92ZM541.27,47.63l.74,1.94h-2.71l.72-1.9c.04-.11.09-.25.15-.43.07-.18.13-.37.21-.58.08-.21.15-.41.21-.6.03-.08.04-.12.06-.19.02.06.04.11.07.18.07.21.15.42.23.64.08.22.15.42.21.6s.1.29.12.34Z"/>
    <polygon class="cls-1" points="552.02 51.67 548.39 51.67 548.39 44.93 547.54 44.93 547.54 52.49 552.02 52.49 552.02 51.67"/>
    <path class="cls-1" d="M502.55,59.51c.25-.27.56-.47.9-.63.35-.15.72-.23,1.12-.23s.78.09,1.14.26c.36.18.7.43,1.01.76l.58-.59c-.19-.26-.43-.48-.72-.67s-.6-.34-.94-.45-.7-.16-1.07-.16c-.53,0-1.02.1-1.47.29-.45.19-.84.47-1.17.81-.33.35-.6.76-.78,1.23-.19.47-.28.98-.28,1.53s.09,1.09.26,1.56c.18.47.43.88.76,1.23.33.35.71.61,1.15.8s.93.28,1.46.28c.35,0,.7-.04,1.03-.13.33-.09.64-.21.92-.36.28-.15.51-.33.69-.52l-.44-.7c-.18.17-.38.32-.59.45-.22.13-.45.23-.7.3s-.51.1-.78.1c-.43,0-.82-.07-1.18-.22-.35-.14-.66-.35-.91-.61-.26-.26-.46-.58-.6-.95-.14-.37-.22-.78-.22-1.24s.07-.83.22-1.2c.14-.37.34-.69.6-.96Z"/>
    <polygon class="cls-1" points="512.35 57.88 511.49 57.88 511.49 65.43 515.97 65.43 515.97 64.61 512.35 64.61 512.35 57.88"/>
    <polygon class="cls-1" points="520.02 58.68 521.3 58.68 521.3 64.64 520.02 64.64 520.02 65.43 523.45 65.43 523.45 64.64 522.15 64.64 522.15 58.68 523.45 58.68 523.45 57.88 520.02 57.88 520.02 58.68"/>
    <path class="cls-1" d="M533.21,61.19c0,.53,0,.99.02,1.4s.03.77.05,1.07c.01.19.03.35.05.51l-4.61-6.3h-.78v7.55h.85v-4.2c0-.15,0-.34-.02-.55-.01-.21-.03-.47-.05-.76-.01-.21-.03-.46-.05-.72l4.61,6.23h.79v-7.55h-.85v3.31Z"/>
    <polygon class="cls-1" points="538.57 58.68 539.85 58.68 539.85 64.64 538.57 64.64 538.57 65.43 542 65.43 542 64.64 540.7 64.64 540.7 58.68 542 58.68 542 57.88 538.57 57.88 538.57 58.68"/>
    <path class="cls-1" d="M551.02,64.28c-.22.13-.45.23-.7.3s-.51.1-.78.1c-.43,0-.82-.07-1.18-.22-.35-.14-.66-.35-.91-.61-.26-.26-.46-.58-.6-.95-.14-.37-.22-.78-.22-1.24s.07-.83.22-1.2c.14-.37.34-.69.6-.96.25-.27.56-.47.9-.63.35-.15.72-.23,1.12-.23s.78.09,1.14.26c.36.18.7.43,1.01.76l.58-.59c-.19-.26-.43-.48-.72-.67s-.6-.34-.94-.45-.7-.16-1.07-.16c-.53,0-1.02.1-1.47.29-.45.19-.84.47-1.17.81-.33.35-.6.76-.78,1.23-.19.47-.28.98-.28,1.53s.09,1.09.26,1.56c.18.47.43.88.76,1.23.33.35.71.61,1.15.8s.93.28,1.46.28c.35,0,.7-.04,1.03-.13.33-.09.64-.21.92-.36.28-.15.51-.33.69-.52l-.44-.7c-.18.17-.38.32-.59.45Z"/>
  </g>
</svg>